AmstelvarA2-Italic_YTFI895.ufo
<glyph name="dollar" format="2">
  <advance width="1107"/>
  <unicode hex="0024"/>
  <outline>
    <contour>
      <point x="-53" y="210" type="qcurve"/>
      <point x="46" y="354" type="line"/>
      <point x="95" y="273"/>
      <point x="340" y="112"/>
      <point x="459" y="113" type="qcurve" smooth="yes"/>
      <point x="590" y="114"/>
      <point x="749" y="284"/>
      <point x="756" y="425" type="qcurve" smooth="yes"/>
      <point x="760" y="529"/>
      <point x="659" y="744"/>
      <point x="521" y="852" type="qcurve" smooth="yes"/>
      <point x="404" y="945"/>
      <point x="238" y="1155"/>
      <point x="246" y="1319" type="qcurve" smooth="yes"/>
      <point x="254" y="1501"/>
      <point x="521" y="1728"/>
      <point x="682" y="1729" type="qcurve" smooth="yes"/>
      <point x="782" y="1729"/>
      <point x="1015" y="1641"/>
      <point x="1096" y="1556" type="qcurve"/>
      <point x="999" y="1429" type="line"/>
      <point x="949" y="1493"/>
      <point x="793" y="1612"/>
      <point x="692" y="1611" type="qcurve" smooth="yes"/>
      <point x="579" y="1610"/>
      <point x="422" y="1466"/>
      <point x="417" y="1363" type="qcurve" smooth="yes"/>
      <point x="412" y="1260"/>
      <point x="515" y="1101"/>
      <point x="655" y="982" type="qcurve" smooth="yes"/>
      <point x="789" y="866"/>
      <point x="926" y="638"/>
      <point x="917" y="469" type="qcurve" smooth="yes"/>
      <point x="906" y="268"/>
      <point x="652" y="-12"/>
      <point x="450" y="-13" type="qcurve" smooth="yes"/>
      <point x="268" y="-14"/>
      <point x="4" y="133"/>
    </contour>
    <contour>
      <point x="263" y="-190" type="line"/>
      <point x="310" y="52" type="line"/>
      <point x="330" y="52" type="line"/>
      <point x="510" y="952" type="line"/>
      <point x="619" y="881" type="line"/>
      <point x="454" y="52" type="line"/>
      <point x="476" y="52" type="line"/>
      <point x="439" y="-140" type="line"/>
    </contour>
    <contour>
      <point x="658" y="1857" type="line"/>
      <point x="832" y="1896" type="line"/>
      <point x="795" y="1705" type="line"/>
      <point x="774" y="1705" type="line"/>
      <point x="619" y="881" type="line"/>
      <point x="510" y="952" type="line"/>
      <point x="650" y="1705" type="line"/>
      <point x="629" y="1705" type="line"/>
    </contour>
  </outline>
</glyph>
<glyph name="zero" format="2">
	<unicode hex="0030"/>
	<advance width="1176"/>
	<outline>
		<contour>
			<point x="89" y="866" type="qcurve" smooth="yes"/>
			<point x="149" y="1211"/>
			<point x="543" y="1760"/>
			<point x="767" y="1760" type="qcurve" smooth="yes"/>
			<point x="988" y="1760"/>
			<point x="1177" y="1217"/>
			<point x="1118" y="874" type="qcurve" smooth="yes"/>
			<point x="1056" y="511"/>
			<point x="681" y="-30"/>
			<point x="452" y="-30" type="qcurve" smooth="yes"/>
			<point x="223" y="-30"/>
			<point x="27" y="519"/>
		</contour>
		<contour>
			<point x="278" y="892" type="qcurve" smooth="yes"/>
			<point x="225" y="586"/>
			<point x="318" y="81"/>
			<point x="465" y="81" type="qcurve" smooth="yes"/>
			<point x="624" y="81"/>
			<point x="877" y="548"/>
			<point x="932" y="866" type="qcurve" smooth="yes"/>
			<point x="981" y="1147"/>
			<point x="894" y="1640"/>
			<point x="745" y="1640" type="qcurve" smooth="yes"/>
			<point x="584" y="1640"/>
			<point x="328" y="1180"/>
		</contour>
	</outline>
</glyph>
<glyph name="one" format="2">
  <advance width="774"/>
  <unicode hex="0031"/>
  <outline>
    <contour>
      <point x="194" y="-1" type="line"/>
      <point x="216" y="61"/>
      <point x="252" y="169"/>
      <point x="270" y="276" type="qcurve" smooth="yes"/>
      <point x="431" y="1250" type="line"/>
      <point x="462" y="1511" type="line"/>
      <point x="106" y="1322" type="line"/>
      <point x="67" y="1429" type="line"/>
      <point x="659" y="1751" type="line"/>
      <point x="722" y="1706" type="line"/>
      <point x="691" y="1661"/>
      <point x="643" y="1514"/>
      <point x="639" y="1491" type="qcurve" smooth="yes"/>
      <point x="527" y="805" type="line"/>
      <point x="426" y="132" type="line"/>
      <point x="265" y="-34" type="line"/>
    </contour>
  </outline>
</glyph>
<glyph name="two" format="2">
	<unicode hex="0032"/>
	<advance width="966"/>
	<outline>
		<contour>
			<point x="-105" y="7" type="qcurve"/>
			<point x="-153" y="79" type="line"/>
			<point x="-24" y="196" type="line" smooth="yes"/>
			<point x="513" y="683"/>
			<point x="760" y="1222"/>
			<point x="750" y="1417" type="qcurve" smooth="yes"/>
			<point x="745" y="1515"/>
			<point x="625" y="1617"/>
			<point x="539" y="1617" type="qcurve" smooth="yes"/>
			<point x="432" y="1617"/>
			<point x="261" y="1539"/>
			<point x="184" y="1464" type="qcurve"/>
			<point x="107" y="1532" type="line"/>
			<point x="180" y="1608"/>
			<point x="421" y="1749"/>
			<point x="589" y="1749" type="qcurve" smooth="yes"/>
			<point x="761" y="1749"/>
			<point x="948" y="1563"/>
			<point x="948" y="1409" type="qcurve" smooth="yes"/>
			<point x="948" y="1170"/>
			<point x="500" y="531"/>
			<point x="161" y="240" type="qcurve"/>
			<point x="161" y="238" type="line"/>
			<point x="173" y="240"/>
			<point x="187" y="241"/>
			<point x="200" y="241" type="qcurve"/>
			<point x="310" y="219"/>
			<point x="492" y="182"/>
			<point x="638" y="152" type="qcurve"/>
			<point x="746" y="319" type="line"/>
			<point x="830" y="300" type="line"/>
			<point x="706" y="-30" type="line"/>
			<point x="568" y="7"/>
			<point x="274" y="78"/>
			<point x="143" y="75" type="qcurve" smooth="yes"/>
			<point x="74" y="73"/>
			<point x="-52" y="42"/>
		</contour>
	</outline>
</glyph>
<glyph name="three" format="2">
	<unicode hex="0033"/>
	<advance width="936"/>
	<outline>
		<contour>
			<point x="-114" y="193" type="qcurve"/>
			<point x="-114" y="269"/>
			<point x="-29" y="350"/>
			<point x="36" y="350" type="qcurve"/>
			<point x="50" y="342" type="line"/>
			<point x="49" y="335"/>
			<point x="48" y="325"/>
			<point x="48" y="313" type="qcurve" smooth="yes"/>
			<point x="48" y="191"/>
			<point x="152" y="69"/>
			<point x="265" y="69" type="qcurve" smooth="yes"/>
			<point x="430" y="69"/>
			<point x="663" y="282"/>
			<point x="663" y="527" type="qcurve" smooth="yes"/>
			<point x="663" y="669"/>
			<point x="514" y="862"/>
			<point x="340" y="878" type="qcurve" smooth="yes"/>
			<point x="265" y="885" type="line"/>
			<point x="273" y="976" type="line"/>
			<point x="323" y="981" type="line" smooth="yes"/>
			<point x="489" y="998"/>
			<point x="747" y="1236"/>
			<point x="747" y="1424" type="qcurve" smooth="yes"/>
			<point x="747" y="1527"/>
			<point x="644" y="1620"/>
			<point x="545" y="1620" type="qcurve" smooth="yes"/>
			<point x="432" y="1620"/>
			<point x="277" y="1528"/>
			<point x="219" y="1470" type="qcurve"/>
			<point x="153" y="1535" type="line"/>
			<point x="230" y="1624"/>
			<point x="470" y="1751"/>
			<point x="622" y="1751" type="qcurve" smooth="yes"/>
			<point x="765" y="1751"/>
			<point x="935" y="1589"/>
			<point x="935" y="1448" type="qcurve" smooth="yes"/>
			<point x="935" y="1266"/>
			<point x="690" y="987"/>
			<point x="514" y="942" type="qcurve"/>
			<point x="513" y="936" type="line"/>
			<point x="666" y="904"/>
			<point x="851" y="688"/>
			<point x="851" y="551" type="qcurve" smooth="yes"/>
			<point x="851" y="255"/>
			<point x="458" y="-33"/>
			<point x="213" y="-33" type="qcurve" smooth="yes"/>
			<point x="61" y="-33"/>
			<point x="-114" y="95"/>
		</contour>
	</outline>
</glyph>
<glyph name="four" format="2">
  <advance width="1212"/>
  <unicode hex="0034"/>
  <outline>
    <contour>
      <point x="13" y="565" type="line"/>
      <point x="13" y="649" type="line"/>
      <point x="964" y="1761" type="line"/>
      <point x="1047" y="1718" type="line"/>
      <point x="1047" y="1678" type="line"/>
      <point x="865" y="630" type="line"/>
      <point x="856" y="597" type="line"/>
      <point x="782" y="176" type="line"/>
      <point x="782" y="18" type="line"/>
      <point x="605" y="-34" type="line"/>
      <point x="575" y="31" type="line"/>
      <point x="669" y="593" type="line"/>
      <point x="679" y="630" type="line"/>
      <point x="830" y="1458" type="line"/>
      <point x="168" y="669" type="line"/>
      <point x="172" y="660" type="line"/>
      <point x="759" y="660" type="line"/>
      <point x="1119" y="660" type="line"/>
      <point x="1102" y="564" type="line"/>
      <point x="748" y="550" type="line"/>
    </contour>
  </outline>
</glyph>
<glyph name="five" format="2">
	<unicode hex="0035"/>
	<advance width="930"/>
	<outline>
		<contour>
			<point x="-125" y="202" type="qcurve" smooth="yes"/>
			<point x="-125" y="277"/>
			<point x="-34" y="359"/>
			<point x="18" y="369" type="qcurve"/>
			<point x="28" y="364" type="line"/>
			<point x="28" y="295" type="line" smooth="yes"/>
			<point x="28" y="213"/>
			<point x="122" y="80"/>
			<point x="244" y="80" type="qcurve" smooth="yes"/>
			<point x="420" y="80"/>
			<point x="660" y="370"/>
			<point x="665" y="628" type="qcurve" smooth="yes"/>
			<point x="670" y="863"/>
			<point x="465" y="996"/>
			<point x="300" y="945" type="qcurve" smooth="yes"/>
			<point x="187" y="910" type="line"/>
			<point x="155" y="980" type="line"/>
			<point x="363" y="1687" type="line"/>
			<point x="395" y="1720" type="line"/>
			<point x="1000" y="1720" type="line"/>
			<point x="969" y="1544" type="line"/>
			<point x="439" y="1544" type="line"/>
			<point x="428" y="1533" type="line"/>
			<point x="375" y="1343"/>
			<point x="287" y="1052"/>
			<point x="246" y="1000" type="qcurve"/>
			<point x="449" y="1100" type="line"/>
			<point x="662" y="1100"/>
			<point x="865" y="892"/>
			<point x="860" y="646" type="qcurve" smooth="yes"/>
			<point x="854" y="328"/>
			<point x="476" y="-24"/>
			<point x="220" y="-24" type="qcurve" smooth="yes"/>
			<point x="60" y="-24"/>
			<point x="-125" y="107"/>
		</contour>
	</outline>
</glyph>
<glyph name="six" format="2">
  <advance width="1116"/>
  <unicode hex="0036"/>
  <outline>
    <contour>
      <point x="37" y="542" type="qcurve" smooth="yes"/>
      <point x="37" y="925"/>
      <point x="570" y="1614"/>
      <point x="991" y="1777" type="qcurve"/>
      <point x="1034" y="1679" type="line"/>
      <point x="725" y="1560"/>
      <point x="212" y="935"/>
      <point x="218" y="477" type="qcurve" smooth="yes"/>
      <point x="221" y="286"/>
      <point x="354" y="84"/>
      <point x="517" y="84" type="qcurve" smooth="yes"/>
      <point x="659" y="84"/>
      <point x="856" y="335"/>
      <point x="848" y="570" type="qcurve" smooth="yes"/>
      <point x="844" y="684"/>
      <point x="721" y="823"/>
      <point x="618" y="823" type="qcurve" smooth="yes"/>
      <point x="565" y="823"/>
      <point x="467" y="792"/>
      <point x="427" y="765" type="qcurve"/>
      <point x="410" y="833" type="line"/>
      <point x="447" y="871"/>
      <point x="572" y="936"/>
      <point x="659" y="936" type="qcurve" smooth="yes"/>
      <point x="825" y="936"/>
      <point x="1037" y="728"/>
      <point x="1037" y="569" type="qcurve" smooth="yes"/>
      <point x="1037" y="323"/>
      <point x="710" y="-27"/>
      <point x="475" y="-27" type="qcurve" smooth="yes"/>
      <point x="249" y="-27"/>
      <point x="37" y="297"/>
    </contour>
  </outline>
</glyph>
<glyph name="seven" format="2">
	<unicode hex="0037"/>
	<advance width="965"/>
	<outline>
		<contour>
			<point x="89" y="1347" type="line"/>
			<point x="243" y="1720" type="line"/>
			<point x="1094" y="1720" type="line"/>
			<point x="1111" y="1672" type="line"/>
			<point x="745" y="1148"/>
			<point x="451" y="407"/>
			<point x="351" y="44" type="qcurve"/>
			<point x="162" y="-32" type="line"/>
			<point x="117" y="42" type="line"/>
			<point x="281" y="449"/>
			<point x="663" y="1176"/>
			<point x="894" y="1538" type="qcurve"/>
			<point x="882" y="1552" type="line"/>
			<point x="332" y="1552" type="line"/>
			<point x="191" y="1347" type="line"/>
		</contour>
	</outline>
</glyph>
<glyph name="eight" format="2">
  <advance width="1015"/>
  <unicode hex="0038"/>
  <outline>
    <contour>
      <point x="441" y="956" type="qcurve"/>
      <point x="507" y="883" type="line"/>
      <point x="333" y="784"/>
      <point x="125" y="518"/>
      <point x="121" y="367" type="qcurve" smooth="yes"/>
      <point x="119" y="252"/>
      <point x="256" y="80"/>
      <point x="389" y="80" type="qcurve" smooth="yes"/>
      <point x="536" y="80"/>
      <point x="755" y="297"/>
      <point x="758" y="447" type="qcurve" smooth="yes"/>
      <point x="762" y="599"/>
      <point x="585" y="787"/>
      <point x="511" y="848" type="qcurve" smooth="yes"/>
      <point x="438" y="909"/>
      <point x="237" y="1119"/>
      <point x="241" y="1299" type="qcurve" smooth="yes"/>
      <point x="245" y="1474"/>
      <point x="527" y="1740"/>
      <point x="718" y="1740" type="qcurve" smooth="yes"/>
      <point x="852" y="1739"/>
      <point x="1011" y="1591"/>
      <point x="1008" y="1470" type="qcurve" smooth="yes"/>
      <point x="1005" y="1322"/>
      <point x="821" y="1059"/>
      <point x="625" y="949" type="qcurve"/>
      <point x="550" y="1015" type="line"/>
      <point x="715" y="1106"/>
      <point x="858" y="1327"/>
      <point x="861" y="1439" type="qcurve" smooth="yes"/>
      <point x="863" y="1526"/>
      <point x="774" y="1620"/>
      <point x="690" y="1621" type="qcurve" smooth="yes"/>
      <point x="556" y="1621"/>
      <point x="400" y="1446"/>
      <point x="397" y="1346" type="qcurve" smooth="yes"/>
      <point x="395" y="1242"/>
      <point x="527" y="1074"/>
      <point x="632" y="986" type="qcurve" smooth="yes"/>
      <point x="738" y="897"/>
      <point x="934" y="663"/>
      <point x="931" y="517" type="qcurve" smooth="yes"/>
      <point x="926" y="310"/>
      <point x="588" y="-29"/>
      <point x="371" y="-29" type="qcurve" smooth="yes"/>
      <point x="185" y="-29"/>
      <point x="-36" y="182"/>
      <point x="-32" y="358" type="qcurve" smooth="yes"/>
      <point x="-27" y="550"/>
      <point x="244" y="847"/>
    </contour>
  </outline>
</glyph>
<glyph name="nine" format="2">
  <advance width="1116"/>
  <unicode hex="0039"/>
  <outline>
    <contour>
      <point x="121" y="-67" type="qcurve"/>
      <point x="82" y="32" type="line"/>
      <point x="391" y="151"/>
      <point x="900" y="775"/>
      <point x="894" y="1233" type="qcurve" smooth="yes"/>
      <point x="891" y="1424"/>
      <point x="758" y="1626"/>
      <point x="595" y="1626" type="qcurve" smooth="yes"/>
      <point x="453" y="1626"/>
      <point x="256" y="1375"/>
      <point x="264" y="1140" type="qcurve" smooth="yes"/>
      <point x="268" y="1026"/>
      <point x="391" y="887"/>
      <point x="494" y="887" type="qcurve" smooth="yes"/>
      <point x="547" y="887"/>
      <point x="645" y="918"/>
      <point x="685" y="945" type="qcurve"/>
      <point x="702" y="877" type="line"/>
      <point x="665" y="839"/>
      <point x="540" y="774"/>
      <point x="453" y="774" type="qcurve" smooth="yes"/>
      <point x="287" y="774"/>
      <point x="75" y="982"/>
      <point x="75" y="1141" type="qcurve" smooth="yes"/>
      <point x="75" y="1387"/>
      <point x="402" y="1737"/>
      <point x="637" y="1737" type="qcurve" smooth="yes"/>
      <point x="863" y="1737"/>
      <point x="1075" y="1413"/>
      <point x="1075" y="1168" type="qcurve" smooth="yes"/>
      <point x="1075" y="785"/>
      <point x="542" y="96"/>
    </contour>
  </outline>
</glyph>
<glyph name="cent" format="2">
  <advance width="905"/>
  <unicode hex="00A2"/>
  <outline>
    <contour>
      <point x="290.92903663262376" y="-100" type="line"/>
      <point x="336.92903663262376" y="162" type="line"/>
      <point x="353.92903663262376" y="162" type="line"/>
      <point x="462.92903663262376" y="773" type="line"/>
      <point x="578.9290366326238" y="731" type="line"/>
      <point x="477.92903663262376" y="162" type="line"/>
      <point x="496.92903663262376" y="162" type="line"/>
      <point x="459.92903663262376" y="-50" type="line"/>
    </contour>
    <contour>
      <point x="572.9290366326238" y="1500" type="line"/>
      <point x="739.9290366326238" y="1539" type="line"/>
      <point x="693.9290366326238" y="1279" type="line"/>
      <point x="675.9290366326238" y="1279" type="line"/>
      <point x="578.9290366326238" y="731" type="line"/>
      <point x="462.92903663262376" y="773" type="line"/>
      <point x="551.9290366326238" y="1279" type="line"/>
      <point x="533.9290366326238" y="1279" type="line"/>
    </contour>
    <contour>
      <point x="76.44555314914027" y="714" type="qcurve"/>
      <point x="157.44555314914027" y="1034"/>
      <point x="507.92903663262376" y="1361"/>
      <point x="695.9290366326238" y="1361" type="qcurve" smooth="yes"/>
      <point x="793.9290366326238" y="1361"/>
      <point x="950.9290366326238" y="1272"/>
      <point x="950.9290366326238" y="1201" type="qcurve" smooth="yes"/>
      <point x="950.9290366326238" y="1092"/>
      <point x="853.9290366326238" y="974"/>
      <point x="792.9290366326238" y="966" type="qcurve"/>
      <point x="784.9290366326238" y="975" type="line"/>
      <point x="784.9290366326238" y="1170" type="line" smooth="yes"/>
      <point x="784.9290366326238" y="1195"/>
      <point x="720.9290366326238" y="1232"/>
      <point x="666.9290366326238" y="1232" type="qcurve" smooth="yes"/>
      <point x="529.9290366326238" y="1232"/>
      <point x="290.44555314914027" y="984"/>
      <point x="225.44555314914027" y="694" type="qcurve" smooth="yes"/>
      <point x="169.44555314914027" y="446"/>
      <point x="281.92903663262376" y="218"/>
      <point x="434.92903663262376" y="218" type="qcurve" smooth="yes"/>
      <point x="549.9290366326238" y="218"/>
      <point x="730.9290366326238" y="334"/>
      <point x="792.9290366326238" y="423" type="qcurve"/>
      <point x="850.9290366326238" y="359" type="line"/>
      <point x="850.9290366326238" y="330" type="line"/>
      <point x="786.9290366326238" y="244"/>
      <point x="520.9290366326238" y="84"/>
      <point x="353.92903663262376" y="91" type="qcurve" smooth="yes"/>
      <point x="181.92903663262376" y="98"/>
      <point x="-2.5544468508597333" y="386"/>
    </contour>
  </outline>
</glyph>
<glyph name="sterling" format="2">
	<unicode hex="00A3"/>
	<advance width="1072"/>
	<outline>
		<contour>
			<point x="194" y="681" type="line"/>
			<point x="210" y="807" type="line"/>
			<point x="914" y="807" type="line"/>
			<point x="894" y="681" type="line"/>
		</contour>
		<contour>
			<point x="667" y="533" type="qcurve" smooth="yes"/>
			<point x="684" y="327"/>
			<point x="379" y="-13"/>
			<point x="176" y="-13" type="qcurve" smooth="yes"/>
			<point x="49" y="-13"/>
			<point x="-85" y="117"/>
			<point x="-80" y="228" type="qcurve" smooth="yes"/>
			<point x="-74" y="351"/>
			<point x="93" y="470"/>
			<point x="202" y="470" type="qcurve" smooth="yes"/>
			<point x="289" y="470"/>
			<point x="468" y="346"/>
			<point x="537" y="291" type="qcurve" smooth="yes"/>
			<point x="605" y="237"/>
			<point x="746" y="141"/>
			<point x="806" y="141" type="qcurve" smooth="yes"/>
			<point x="876" y="141"/>
			<point x="981" y="187"/>
			<point x="1045" y="238" type="qcurve"/>
			<point x="1092" y="160" type="line"/>
			<point x="1049" y="102"/>
			<point x="871" y="0"/>
			<point x="782" y="0" type="qcurve" smooth="yes"/>
			<point x="702" y="0"/>
			<point x="533" y="107"/>
			<point x="456" y="176" type="qcurve" smooth="yes"/>
			<point x="396" y="229"/>
			<point x="250" y="350"/>
			<point x="187" y="350" type="qcurve" smooth="yes"/>
			<point x="135" y="350"/>
			<point x="65" y="306"/>
			<point x="58" y="243" type="qcurve" smooth="yes"/>
			<point x="50" y="170"/>
			<point x="107" y="96"/>
			<point x="164" y="96" type="qcurve" smooth="yes"/>
			<point x="339" y="96"/>
			<point x="507" y="329"/>
			<point x="493" y="493" type="qcurve" smooth="yes"/>
			<point x="483" y="594"/>
			<point x="408" y="744"/>
			<point x="377" y="808" type="qcurve" smooth="yes"/>
			<point x="306" y="955"/>
			<point x="258" y="1245"/>
			<point x="296" y="1398" type="qcurve" smooth="yes"/>
			<point x="336" y="1561"/>
			<point x="598" y="1781"/>
			<point x="791" y="1781" type="qcurve" smooth="yes"/>
			<point x="930" y="1781"/>
			<point x="1137" y="1662"/>
			<point x="1202" y="1582" type="qcurve"/>
			<point x="1107" y="1476" type="line"/>
			<point x="1051" y="1547"/>
			<point x="908" y="1655"/>
			<point x="801" y="1657" type="qcurve" smooth="yes"/>
			<point x="685" y="1658"/>
			<point x="509" y="1520"/>
			<point x="473" y="1388" type="qcurve" smooth="yes"/>
			<point x="441" y="1272"/>
			<point x="469" y="1039"/>
			<point x="541" y="875" type="qcurve" smooth="yes"/>
			<point x="579" y="789"/>
			<point x="657" y="643"/>
		</contour>
	</outline>
</glyph>
<glyph name="yen" format="2">
	<unicode hex="00A5"/>
	<advance width="1242"/>
	<outline>
		<contour>
			<point x="200" y="1606" type="line"/>
			<point x="213" y="1720" type="line"/>
			<point x="691" y="1720" type="line"/>
			<point x="678" y="1606" type="line"/>
			<point x="522" y="1580" type="line"/>
			<point x="605" y="1238" type="line"/>
			<point x="660" y="1035" type="line"/>
			<point x="681" y="925" type="line"/>
			<point x="698" y="925" type="line"/>
			<point x="759" y="1030" type="line"/>
			<point x="915" y="1258" type="line"/>
			<point x="1126" y="1588" type="line"/>
			<point x="952" y="1606" type="line"/>
			<point x="965" y="1720" type="line"/>
			<point x="1427" y="1720" type="line"/>
			<point x="1414" y="1606" type="line"/>
			<point x="1266" y="1589" type="line"/>
			<point x="993" y="1186" type="line"/>
			<point x="728" y="781" type="line"/>
			<point x="606" y="125" type="line"/>
			<point x="793" y="100" type="line"/>
			<point x="784" y="0" type="line"/>
			<point x="242" y="0" type="line"/>
			<point x="251" y="100" type="line"/>
			<point x="449" y="125" type="line"/>
			<point x="576" y="779" type="line"/>
			<point x="474" y="1148" type="line"/>
			<point x="342" y="1590" type="line"/>
		</contour>
		<contour>
			<point x="209" y="804" type="line"/>
			<point x="243" y="924" type="line"/>
			<point x="1137" y="924" type="line"/>
			<point x="1107" y="804" type="line"/>
		</contour>
		<contour>
			<point x="199" y="460" type="line"/>
			<point x="233" y="580" type="line"/>
			<point x="1067" y="580" type="line"/>
			<point x="1037" y="460" type="line"/>
		</contour>
	</outline>
</glyph>
<glyph name="twosuperior" format="2">
  <advance width="774"/>
  <unicode hex="00B2"/>
  <outline>
    <contour>
      <point x="102" y="671" type="qcurve"/>
      <point x="59" y="751" type="line"/>
      <point x="146" y="812" type="line"/>
      <point x="448" y="1052"/>
      <point x="631" y="1366"/>
      <point x="631" y="1504" type="qcurve" smooth="yes"/>
      <point x="631" y="1590"/>
      <point x="569" y="1648"/>
      <point x="514" y="1648" type="qcurve" smooth="yes"/>
      <point x="451" y="1648"/>
      <point x="348" y="1609"/>
      <point x="285" y="1539" type="qcurve"/>
      <point x="223" y="1618" type="line"/>
      <point x="296" y="1684"/>
      <point x="458" y="1764"/>
      <point x="569" y="1764" type="qcurve" smooth="yes"/>
      <point x="680" y="1764"/>
      <point x="804" y="1656"/>
      <point x="804" y="1534" type="qcurve" smooth="yes"/>
      <point x="804" y="1340"/>
      <point x="448" y="958"/>
      <point x="283" y="817" type="qcurve"/>
      <point x="287" y="812" type="line"/>
      <point x="368" y="835"/>
      <point x="589" y="822"/>
      <point x="680" y="796" type="qcurve"/>
      <point x="658" y="651" type="line"/>
      <point x="529" y="685"/>
      <point x="226" y="711"/>
    </contour>
  </outline>
</glyph>
<glyph name="threesuperior" format="2">
	<unicode hex="00B3"/>
	<advance width="706"/>
	<outline>
		<contour>
			<point x="36" y="786" type="qcurve" smooth="yes"/>
			<point x="36" y="832"/>
			<point x="97" y="898"/>
			<point x="138" y="913" type="qcurve"/>
			<point x="191" y="845" type="line"/>
			<point x="191" y="838" type="line"/>
			<point x="176" y="832"/>
			<point x="155" y="810"/>
			<point x="155" y="784" type="qcurve" smooth="yes"/>
			<point x="155" y="756"/>
			<point x="222" y="728"/>
			<point x="286" y="728" type="qcurve" smooth="yes"/>
			<point x="384" y="728"/>
			<point x="504" y="866"/>
			<point x="504" y="1017" type="qcurve" smooth="yes"/>
			<point x="504" y="1135"/>
			<point x="389" y="1222"/>
			<point x="311" y="1214" type="qcurve" smooth="yes"/>
			<point x="226" y="1206" type="line"/>
			<point x="239" y="1300" type="line"/>
			<point x="324" y="1309" type="line" smooth="yes"/>
			<point x="404" y="1317"/>
			<point x="565" y="1441"/>
			<point x="565" y="1521" type="qcurve" smooth="yes"/>
			<point x="565" y="1591"/>
			<point x="500" y="1655"/>
			<point x="453" y="1655" type="qcurve" smooth="yes"/>
			<point x="393" y="1655"/>
			<point x="299" y="1611"/>
			<point x="260" y="1575" type="qcurve"/>
			<point x="212" y="1647" type="line"/>
			<point x="283" y="1710"/>
			<point x="428" y="1768"/>
			<point x="513" y="1768" type="qcurve" smooth="yes"/>
			<point x="609" y="1768"/>
			<point x="726" y="1640"/>
			<point x="726" y="1564" type="qcurve" smooth="yes"/>
			<point x="726" y="1449"/>
			<point x="565" y="1308"/>
			<point x="453" y="1286" type="qcurve"/>
			<point x="452" y="1282" type="line"/>
			<point x="555" y="1267"/>
			<point x="666" y="1135"/>
			<point x="666" y="1021" type="qcurve"/>
			<point x="666" y="842"/>
			<point x="452" y="639"/>
			<point x="283" y="639" type="qcurve" smooth="yes"/>
			<point x="166" y="639"/>
			<point x="36" y="722"/>
		</contour>
	</outline>
</glyph>
<glyph name="onesuperior" format="2">
  <advance width="570"/>
  <unicode hex="00B9"/>
  <outline>
    <contour>
      <point x="204" y="684" type="line"/>
      <point x="239" y="718"/>
      <point x="332" y="1108"/>
      <point x="354" y="1208" type="qcurve" smooth="yes"/>
      <point x="405" y="1443" type="line"/>
      <point x="450" y="1595" type="line"/>
      <point x="174" y="1379" type="line"/>
      <point x="118" y="1488" type="line"/>
      <point x="543" y="1773" type="line"/>
      <point x="618" y="1723" type="line"/>
      <point x="605" y="1692"/>
      <point x="581" y="1613"/>
      <point x="578" y="1600" type="qcurve" smooth="yes"/>
      <point x="509" y="1281" type="line"/>
      <point x="422" y="737" type="line"/>
      <point x="306" y="645" type="line"/>
    </contour>
  </outline>
</glyph>
<glyph name="florin" format="2">
	<unicode hex="0192"/>
	<advance width="688"/>
	<outline>
		<contour>
			<point x="59" y="-309" type="qcurve" smooth="yes"/>
			<point x="26" y="-309"/>
			<point x="-50" y="-302"/>
			<point x="-79" y="-295" type="qcurve" smooth="yes"/>
			<point x="-100" y="-290" type="line"/>
			<point x="-84" y="-183" type="line"/>
			<point x="-60" y="-190" type="line" smooth="yes"/>
			<point x="-52" y="-192"/>
			<point x="-21" y="-197"/>
			<point x="-5" y="-197" type="qcurve" smooth="yes"/>
			<point x="64" y="-197"/>
			<point x="122" y="-112"/>
			<point x="136" y="-40" type="qcurve" smooth="yes"/>
			<point x="300" y="782" type="line"/>
			<point x="431" y="1550" type="line" smooth="yes"/>
			<point x="448" y="1649"/>
			<point x="564" y="1764"/>
			<point x="664" y="1764" type="qcurve" smooth="yes"/>
			<point x="697" y="1764"/>
			<point x="777" y="1756"/>
			<point x="802" y="1750" type="qcurve" smooth="yes"/>
			<point x="823" y="1745" type="line"/>
			<point x="807" y="1638" type="line"/>
			<point x="783" y="1645" type="line" smooth="yes"/>
			<point x="775" y="1647"/>
			<point x="744" y="1652"/>
			<point x="728" y="1652" type="qcurve" smooth="yes"/>
			<point x="659" y="1652"/>
			<point x="601" y="1588"/>
			<point x="587" y="1515" type="qcurve" smooth="yes"/>
			<point x="443" y="759" type="line"/>
			<point x="290" y="-75" type="line" smooth="yes"/>
			<point x="272" y="-173"/>
			<point x="159" y="-309"/>
		</contour>
		<contour>
			<point x="134" y="982" type="line"/>
			<point x="124" y="1076" type="line"/>
			<point x="379" y="1095" type="line"/>
			<point x="481" y="1095" type="line"/>
			<point x="708" y="1095" type="line"/>
			<point x="708" y="993" type="line"/>
			<point x="453" y="982" type="line"/>
			<point x="359" y="970" type="line"/>
		</contour>
	</outline>
</glyph>
<glyph name="foursuperior" format="2">
  <advance width="763"/>
  <unicode hex="2074"/>
  <outline>
    <contour>
      <point x="71" y="1022" type="line"/>
      <point x="82" y="1105" type="line"/>
      <point x="666" y="1767" type="line"/>
      <point x="762" y="1741" type="line"/>
      <point x="773" y="1717" type="line"/>
      <point x="637" y="1074" type="line"/>
      <point x="582" y="775" type="line"/>
      <point x="591" y="693" type="line"/>
      <point x="466" y="651" type="line"/>
      <point x="418" y="709" type="line"/>
      <point x="504" y="1088" type="line"/>
      <point x="605" y="1583" type="line"/>
      <point x="214" y="1118" type="line"/>
      <point x="217" y="1112" type="line"/>
      <point x="572" y="1106" type="line"/>
      <point x="807" y="1106" type="line"/>
      <point x="792" y="1009" type="line"/>
      <point x="555" y="1013" type="line"/>
    </contour>
  </outline>
</glyph>
<glyph name="colonsign" format="2">
	<unicode hex="20A1"/>
	<advance width="1312"/>
	<outline>
		<contour>
			<point x="621" y="-149" type="line"/>
			<point x="684" y="138" type="line"/>
			<point x="695" y="133" type="line"/>
			<point x="884" y="906" type="line"/>
			<point x="1003" y="872" type="line"/>
			<point x="816" y="106" type="line"/>
			<point x="829" y="101" type="line"/>
			<point x="772" y="-198" type="line"/>
		</contour>
		<contour>
			<point x="1081" y="1814" type="line"/>
			<point x="1236" y="1814" type="line"/>
			<point x="1182" y="1573" type="line"/>
			<point x="1170" y="1577" type="line"/>
			<point x="1003" y="872" type="line"/>
			<point x="884" y="906" type="line"/>
			<point x="1049" y="1605" type="line"/>
			<point x="1036" y="1610" type="line"/>
		</contour>
		<contour>
			<point x="343" y="-79" type="line"/>
			<point x="420" y="229" type="line"/>
			<point x="431" y="224" type="line"/>
			<point x="594" y="906" type="line"/>
			<point x="713" y="872" type="line"/>
			<point x="552" y="197" type="line"/>
			<point x="565" y="192" type="line"/>
			<point x="494" y="-128" type="line"/>
		</contour>
		<contour>
			<point x="791" y="1814" type="line"/>
			<point x="946" y="1814" type="line"/>
			<point x="899" y="1609" type="line"/>
			<point x="887" y="1613" type="line"/>
			<point x="713" y="872" type="line"/>
			<point x="594" y="906" type="line"/>
			<point x="758" y="1611" type="line"/>
			<point x="745" y="1616" type="line"/>
		</contour>
		<contour>
			<point x="197" y="1024" type="qcurve" smooth="yes"/>
			<point x="288" y="1365"/>
			<point x="819" y="1733"/>
			<point x="1046" y="1687" type="qcurve" smooth="yes"/>
			<point x="1217" y="1653"/>
			<point x="1390" y="1370"/>
			<point x="1344" y="1130" type="qcurve"/>
			<point x="1216" y="1130" type="line"/>
			<point x="1247" y="1306"/>
			<point x="1154" y="1527"/>
			<point x="1007" y="1554" type="qcurve" smooth="yes"/>
			<point x="823" y="1588"/>
			<point x="470" y="1366"/>
			<point x="380" y="1011" type="qcurve" smooth="yes"/>
			<point x="290" y="654"/>
			<point x="436" y="240"/>
			<point x="631" y="205" type="qcurve" smooth="yes"/>
			<point x="821" y="171"/>
			<point x="1118" y="347"/>
			<point x="1214" y="508" type="qcurve"/>
			<point x="1238" y="491" type="line"/>
			<point x="1257" y="403" type="line"/>
			<point x="1124" y="193"/>
			<point x="782" y="47"/>
			<point x="581" y="75" type="qcurve" smooth="yes"/>
			<point x="315" y="113"/>
			<point x="101" y="658"/>
		</contour>
	</outline>
</glyph>
<glyph name="franc" format="2">
	<unicode hex="20A3"/>
	<advance width="1060"/>
	<outline>
		<contour>
			<point x="72" y="427" type="line"/>
			<point x="101" y="547" type="line"/>
			<point x="785" y="547" type="line"/>
			<point x="756" y="427" type="line"/>
		</contour>
		<contour>
			<point x="-16" y="0" type="line"/>
			<point x="3" y="100" type="line"/>
			<point x="190" y="127" type="line"/>
			<point x="336" y="870" type="line"/>
			<point x="467" y="1582" type="line"/>
			<point x="284" y="1606" type="line"/>
			<point x="297" y="1720" type="line"/>
			<point x="1207" y="1720" type="line"/>
			<point x="1140" y="1394" type="line"/>
			<point x="1040" y="1394" type="line"/>
			<point x="1053" y="1602" type="line"/>
			<point x="669" y="1612" type="line"/>
			<point x="633" y="1592" type="line"/>
			<point x="496" y="870" type="line"/>
			<point x="353" y="122" type="line"/>
			<point x="553" y="100" type="line"/>
			<point x="534" y="0" type="line"/>
		</contour>
		<contour>
			<point x="421" y="889" type="line"/>
			<point x="440" y="991" type="line"/>
			<point x="831" y="998" type="line"/>
			<point x="888" y="1161" type="line"/>
			<point x="988" y="1161" type="line"/>
			<point x="897" y="695" type="line"/>
			<point x="797" y="695" type="line"/>
			<point x="808" y="882" type="line"/>
		</contour>
	</outline>
</glyph>
<glyph name="lira" format="2">
  <advance width="1072"/>
  <unicode hex="20A4"/>
  <outline>
    <contour>
      <point x="176" y="-13" type="qcurve" smooth="yes"/>
      <point x="49" y="-13"/>
      <point x="-79" y="128"/>
      <point x="-70" y="235" type="qcurve" smooth="yes"/>
      <point x="-59" y="356"/>
      <point x="108" y="484"/>
      <point x="217" y="484" type="qcurve" smooth="yes"/>
      <point x="304" y="484"/>
      <point x="460" y="383"/>
      <point x="527" y="318" type="qcurve" smooth="yes"/>
      <point x="593" y="255"/>
      <point x="761" y="141"/>
      <point x="821" y="141" type="qcurve" smooth="yes"/>
      <point x="891" y="141"/>
      <point x="1008" y="207"/>
      <point x="1074" y="267" type="qcurve"/>
      <point x="1118" y="190" type="line"/>
      <point x="1073" y="122"/>
      <point x="881" y="2"/>
      <point x="792" y="2" type="qcurve" smooth="yes"/>
      <point x="712" y="2"/>
      <point x="519" y="124"/>
      <point x="442" y="203" type="qcurve" smooth="yes"/>
      <point x="381" y="265"/>
      <point x="258" y="361"/>
      <point x="197" y="361" type="qcurve" smooth="yes"/>
      <point x="146" y="361"/>
      <point x="82" y="315"/>
      <point x="71" y="252" type="qcurve" smooth="yes"/>
      <point x="60" y="184"/>
      <point x="113" y="97"/>
      <point x="169" y="97" type="qcurve" smooth="yes"/>
      <point x="327" y="97"/>
      <point x="524" y="403"/>
      <point x="529" y="569" type="qcurve" smooth="yes"/>
      <point x="533" y="688"/>
      <point x="456" y="884"/>
      <point x="415" y="951" type="qcurve" smooth="yes"/>
      <point x="369" y="1028"/>
      <point x="303" y="1234"/>
      <point x="319" y="1388" type="qcurve" smooth="yes"/>
      <point x="336" y="1550"/>
      <point x="570" y="1764"/>
      <point x="763" y="1764" type="qcurve" smooth="yes"/>
      <point x="902" y="1764"/>
      <point x="1112" y="1649"/>
      <point x="1169" y="1577" type="qcurve"/>
      <point x="1070" y="1475" type="line"/>
      <point x="1023" y="1541"/>
      <point x="876" y="1638"/>
      <point x="769" y="1641" type="qcurve" smooth="yes"/>
      <point x="653" y="1642"/>
      <point x="494" y="1504"/>
      <point x="484" y="1381" type="qcurve"/>
      <point x="476" y="1272"/>
      <point x="533" y="1114"/>
      <point x="582" y="1029" type="qcurve" smooth="yes"/>
      <point x="633" y="939"/>
      <point x="698" y="745"/>
      <point x="695" y="616" type="qcurve" smooth="yes"/>
      <point x="688" y="397"/>
      <point x="359" y="-13"/>
    </contour>
    <contour>
      <point x="208" y="609" type="line"/>
      <point x="224" y="729" type="line"/>
      <point x="928" y="729" type="line"/>
      <point x="908" y="609" type="line"/>
    </contour>
    <contour>
      <point x="245" y="912" type="line"/>
      <point x="261" y="1032" type="line"/>
      <point x="965" y="1032" type="line"/>
      <point x="945" y="912" type="line"/>
    </contour>
  </outline>
</glyph>
<glyph name="naira" format="2">
	<unicode hex="20A6"/>
	<advance width="1518"/>
	<outline>
		<contour>
			<point x="1404" y="625" type="line"/>
			<point x="1141" y="625" type="line"/>
			<point x="1146" y="651" type="line"/>
			<point x="896" y="651" type="line"/>
			<point x="863" y="754" type="line"/>
			<point x="1164" y="754" type="line"/>
			<point x="1168" y="772" type="line"/>
			<point x="1444" y="772" type="line"/>
		</contour>
		<contour>
			<point x="114" y="626" type="line"/>
			<point x="135" y="772" type="line"/>
			<point x="378" y="772" type="line"/>
			<point x="374" y="754" type="line"/>
			<point x="863" y="754" type="line"/>
			<point x="899" y="642" type="line"/>
			<point x="353" y="642" type="line"/>
			<point x="350" y="626" type="line"/>
		</contour>
		<contour>
			<point x="1474" y="1046" type="line"/>
			<point x="1225" y="1046" type="line"/>
			<point x="1228" y="1060" type="line"/>
			<point x="807" y="1060" type="line"/>
			<point x="761" y="1178" type="line"/>
			<point x="1249" y="1178" type="line"/>
			<point x="1252" y="1194" type="line"/>
			<point x="1514" y="1194" type="line"/>
		</contour>
		<contour>
			<point x="194" y="1046" type="line"/>
			<point x="215" y="1194" type="line"/>
			<point x="464" y="1194" type="line"/>
			<point x="459" y="1172" type="line"/>
			<point x="763" y="1172" type="line"/>
			<point x="807" y="1060" type="line"/>
			<point x="439" y="1060" type="line"/>
			<point x="436" y="1046" type="line"/>
		</contour>
		<contour>
			<point x="20" y="0" type="line"/>
			<point x="29" y="100" type="line"/>
			<point x="225" y="125" type="line"/>
			<point x="348" y="754" type="line"/>
			<point x="504" y="1582" type="line"/>
			<point x="321" y="1606" type="line"/>
			<point x="334" y="1720" type="line"/>
			<point x="702" y="1720" type="line"/>
			<point x="905" y="874" type="line"/>
			<point x="1049" y="276" type="line"/>
			<point x="1143" y="754" type="line"/>
			<point x="1300" y="1582" type="line"/>
			<point x="1099" y="1606" type="line"/>
			<point x="1115" y="1720" type="line"/>
			<point x="1619" y="1720" type="line"/>
			<point x="1603" y="1606" type="line"/>
			<point x="1409" y="1582" type="line"/>
			<point x="1249" y="754" type="line"/>
			<point x="1098" y="0" type="line"/>
			<point x="987" y="0" type="line"/>
			<point x="779" y="843" type="line"/>
			<point x="605" y="1548" type="line"/>
			<point x="453" y="754" type="line"/>
			<point x="334" y="125" type="line"/>
			<point x="525" y="100" type="line"/>
			<point x="516" y="0" type="line"/>
		</contour>
	</outline>
</glyph>
<glyph name="peseta" format="2">
  <advance width="2182"/>
  <unicode hex="20A7"/>
  <outline>
    <contour>
      <point x="-61" y="0" type="line"/>
      <point x="-52" y="100" type="line"/>
      <point x="135" y="127" type="line"/>
      <point x="267" y="841" type="line"/>
      <point x="403" y="1582" type="line"/>
      <point x="240" y="1606" type="line"/>
      <point x="253" y="1720" type="line"/>
      <point x="735" y="1720" type="line" smooth="yes"/>
      <point x="952" y="1720"/>
      <point x="1152" y="1405"/>
      <point x="1117" y="1191" type="qcurve" smooth="yes"/>
      <point x="1084" y="990"/>
      <point x="782" y="753"/>
      <point x="603" y="753" type="qcurve" smooth="yes"/>
      <point x="504" y="753"/>
      <point x="371" y="772"/>
      <point x="329" y="780" type="qcurve"/>
      <point x="351" y="883" type="line"/>
      <point x="402" y="870"/>
      <point x="496" y="861"/>
      <point x="589" y="861" type="qcurve" smooth="yes"/>
      <point x="724" y="861"/>
      <point x="918" y="1043"/>
      <point x="943" y="1212" type="qcurve" smooth="yes"/>
      <point x="966" y="1369"/>
      <point x="849" y="1603"/>
      <point x="705" y="1602" type="qcurve" smooth="yes"/>
      <point x="590" y="1602" type="line"/>
      <point x="564" y="1580" type="line"/>
      <point x="429" y="851" type="line"/>
      <point x="298" y="122" type="line"/>
      <point x="488" y="100" type="line"/>
      <point x="479" y="0" type="line"/>
    </contour>
    <contour>
      <point x="1091" y="-15" type="line"/>
      <point x="1017" y="117" type="line"/>
      <point x="1113" y="512" type="line"/>
      <point x="1227" y="1009" type="line"/>
      <point x="1066" y="1051" type="line"/>
      <point x="1081" y="1105" type="line"/>
      <point x="1192" y="1110"/>
      <point x="1327" y="1258"/>
      <point x="1380" y="1466" type="qcurve"/>
      <point x="1437" y="1466" type="line"/>
      <point x="1463" y="1426" type="line"/>
      <point x="1299" y="697" type="line"/>
      <point x="1200" y="134" type="line"/>
      <point x="1406" y="159" type="line"/>
      <point x="1406" y="71" type="line"/>
    </contour>
    <contour>
      <point x="1303" y="1028" type="line"/>
      <point x="1338" y="1159" type="line"/>
      <point x="1621" y="1159" type="line"/>
      <point x="1601" y="1054" type="line"/>
    </contour>
    <contour>
      <point x="1435" y="237" type="qcurve" smooth="yes"/>
      <point x="1441" y="330"/>
      <point x="1530" y="413"/>
      <point x="1585" y="413" type="qcurve" smooth="yes"/>
      <point x="1610" y="413" type="line"/>
      <point x="1596" y="199" type="line" smooth="yes"/>
      <point x="1592" y="144"/>
      <point x="1656" y="86"/>
      <point x="1734" y="86" type="qcurve" smooth="yes"/>
      <point x="1827" y="86"/>
      <point x="1957" y="209"/>
      <point x="1962" y="294" type="qcurve" smooth="yes"/>
      <point x="1967" y="371"/>
      <point x="1871" y="509"/>
      <point x="1787" y="567" type="qcurve" smooth="yes"/>
      <point x="1676" y="641"/>
      <point x="1580" y="780"/>
      <point x="1588" y="882" type="qcurve" smooth="yes"/>
      <point x="1597" y="1003"/>
      <point x="1795" y="1186"/>
      <point x="1951" y="1185" type="qcurve" smooth="yes"/>
      <point x="2066" y="1185"/>
      <point x="2183" y="1055"/>
      <point x="2178" y="966" type="qcurve" smooth="yes"/>
      <point x="2173" y="893"/>
      <point x="2103" y="783"/>
      <point x="2036" y="783" type="qcurve" smooth="yes"/>
      <point x="2010" y="783" type="line"/>
      <point x="2022" y="963" type="line" smooth="yes"/>
      <point x="2024" y="995"/>
      <point x="1962" y="1067"/>
      <point x="1905" y="1067" type="qcurve" smooth="yes"/>
      <point x="1833" y="1068"/>
      <point x="1724" y="981"/>
      <point x="1720" y="919" type="qcurve" smooth="yes"/>
      <point x="1716" y="859"/>
      <point x="1801" y="755"/>
      <point x="1893" y="689" type="qcurve" smooth="yes"/>
      <point x="1982" y="624"/>
      <point x="2116" y="464"/>
      <point x="2108" y="333" type="qcurve" smooth="yes"/>
      <point x="2098" y="176"/>
      <point x="1876" y="-26"/>
      <point x="1710" y="-25" type="qcurve" smooth="yes"/>
      <point x="1566" y="-25"/>
      <point x="1429" y="141"/>
    </contour>
  </outline>
</glyph>
<glyph name="won" format="2">
  <advance width="1918"/>
  <unicode hex="20A9"/>
  <outline>
    <contour>
      <point x="1714" y="595" type="line"/>
      <point x="1394" y="595" type="line"/>
      <point x="1394" y="621" type="line"/>
      <point x="1116" y="621" type="line"/>
      <point x="1116" y="723" type="line"/>
      <point x="1471" y="723" type="line"/>
      <point x="1471" y="742" type="line"/>
      <point x="1773" y="742" type="line"/>
    </contour>
    <contour>
      <point x="1913" y="1046" type="line"/>
      <point x="1641" y="1046" type="line"/>
      <point x="1641" y="1068" type="line"/>
      <point x="1141" y="1068" type="line"/>
      <point x="1141" y="1175" type="line"/>
      <point x="1701" y="1175" type="line"/>
      <point x="1701" y="1194" type="line"/>
      <point x="1981" y="1194" type="line"/>
    </contour>
    <contour>
      <point x="207" y="595" type="line"/>
      <point x="188" y="742" type="line"/>
      <point x="439" y="742" type="line"/>
      <point x="441" y="723" type="line"/>
      <point x="1116" y="723" type="line"/>
      <point x="1116" y="621" type="line"/>
      <point x="449" y="621" type="line"/>
      <point x="450" y="595" type="line"/>
    </contour>
    <contour>
      <point x="188" y="1046" type="line"/>
      <point x="170" y="1194" type="line"/>
      <point x="478" y="1194" type="line"/>
      <point x="478" y="1175" type="line"/>
      <point x="1141" y="1175" type="line"/>
      <point x="1141" y="1068" type="line"/>
      <point x="484" y="1068" type="line"/>
      <point x="484" y="1046" type="line"/>
    </contour>
    <contour>
      <point x="169" y="1606" type="line"/>
      <point x="193" y="1720" type="line"/>
      <point x="682" y="1720" type="line"/>
      <point x="658" y="1606" type="line"/>
      <point x="500" y="1586" type="line"/>
      <point x="513" y="803" type="line"/>
      <point x="526" y="318" type="line"/>
      <point x="572" y="318" type="line"/>
      <point x="810" y="737" type="line"/>
      <point x="1106" y="1252" type="line"/>
      <point x="1109" y="1083" type="line"/>
      <point x="913" y="699" type="line"/>
      <point x="489" y="-8" type="line"/>
      <point x="385" y="-8" type="line"/>
      <point x="361" y="740" type="line"/>
      <point x="332" y="1586" type="line"/>
    </contour>
    <contour>
      <point x="879" y="1614" type="line"/>
      <point x="900" y="1720" type="line"/>
      <point x="1365" y="1720" type="line"/>
      <point x="1344" y="1606" type="line"/>
      <point x="1191" y="1593" type="line"/>
      <point x="1179" y="800" type="line"/>
      <point x="1181" y="317" type="line"/>
      <point x="1225" y="319" type="line"/>
      <point x="1477" y="803" type="line"/>
      <point x="1877" y="1592" type="line"/>
      <point x="1684" y="1606" type="line"/>
      <point x="1697" y="1720" type="line"/>
      <point x="2184" y="1720" type="line"/>
      <point x="2171" y="1606" type="line"/>
      <point x="2013" y="1587" type="line"/>
      <point x="1574" y="760" type="line"/>
      <point x="1145" y="-8" type="line"/>
      <point x="1034" y="-8" type="line"/>
      <point x="1028" y="734" type="line"/>
      <point x="1021" y="1593" type="line"/>
    </contour>
  </outline>
</glyph>
<glyph name="dong" format="2">
  <advance width="1095"/>
  <unicode hex="20AB"/>
  <outline>
    <contour>
      <point x="5" y="-266" type="line"/>
      <point x="25" y="-124" type="line"/>
      <point x="446" y="-128" type="line"/>
      <point x="897" y="-124" type="line"/>
      <point x="877" y="-266" type="line"/>
      <point x="427" y="-262" type="line"/>
    </contour>
    <contour>
      <point x="517" y="1222" type="line"/>
      <point x="548" y="1347" type="line"/>
      <point x="965" y="1344" type="line"/>
      <point x="1181" y="1347" type="line"/>
      <point x="1151" y="1222" type="line"/>
      <point x="934" y="1226" type="line"/>
    </contour>
    <contour>
      <point x="54" y="248" type="qcurve" smooth="yes"/>
      <point x="54" y="548"/>
      <point x="497" y="987"/>
      <point x="780" y="987" type="qcurve" smooth="yes"/>
      <point x="812" y="987" type="line"/>
      <point x="915" y="1556" type="line"/>
      <point x="811" y="1648" type="line"/>
      <point x="839" y="1720" type="line"/>
      <point x="1020" y="1754" type="line"/>
      <point x="1107" y="1684" type="line"/>
      <point x="872" y="469" type="line"/>
      <point x="823" y="133" type="line"/>
      <point x="908" y="133" type="line"/>
      <point x="908" y="44" type="line"/>
      <point x="681" y="-16" type="line"/>
      <point x="644" y="65" type="line"/>
      <point x="651" y="171" type="line"/>
      <point x="586" y="96"/>
      <point x="346" y="-10"/>
      <point x="275" y="-10" type="qcurve" smooth="yes"/>
      <point x="158" y="-10"/>
      <point x="54" y="139"/>
    </contour>
    <contour>
      <point x="223" y="300" type="qcurve" smooth="yes"/>
      <point x="223" y="225"/>
      <point x="283" y="127"/>
      <point x="352" y="127" type="qcurve" smooth="yes"/>
      <point x="470" y="127"/>
      <point x="694" y="313"/>
      <point x="727" y="491" type="qcurve" smooth="yes"/>
      <point x="781" y="771" type="line"/>
      <point x="778" y="811"/>
      <point x="712" y="837"/>
      <point x="671" y="837" type="qcurve" smooth="yes"/>
      <point x="472" y="837"/>
      <point x="223" y="519"/>
    </contour>
  </outline>
</glyph>
<glyph name="Euro" format="2">
  <advance width="1099"/>
  <unicode hex="20AC"/>
  <outline>
    <contour>
      <point x="120" y="998" type="line"/>
      <point x="151" y="1124" type="line"/>
      <point x="971" y="1124" type="line"/>
      <point x="944" y="998" type="line"/>
    </contour>
    <contour>
      <point x="73" y="641" type="line"/>
      <point x="99" y="767" type="line"/>
      <point x="953" y="767" type="line"/>
      <point x="923" y="641" type="line"/>
    </contour>
    <contour>
      <point x="1109" y="1421" type="line"/>
      <point x="1082" y="1506"/>
      <point x="981" y="1610"/>
      <point x="902" y="1610" type="qcurve" smooth="yes"/>
      <point x="741" y="1610"/>
      <point x="508" y="1251"/>
      <point x="443" y="877" type="qcurve" smooth="yes"/>
      <point x="383" y="531"/>
      <point x="500" y="119"/>
      <point x="647" y="119" type="qcurve" smooth="yes"/>
      <point x="727" y="119"/>
      <point x="855" y="203"/>
      <point x="928" y="288" type="qcurve"/>
      <point x="1005" y="202" type="line"/>
      <point x="932" y="106"/>
      <point x="724" y="-25"/>
      <point x="619" y="-25" type="qcurve" smooth="yes"/>
      <point x="387" y="-25"/>
      <point x="191" y="465"/>
      <point x="270" y="890" type="qcurve" smooth="yes"/>
      <point x="348" y="1309"/>
      <point x="704" y="1762"/>
      <point x="928" y="1762" type="qcurve" smooth="yes"/>
      <point x="1045" y="1762"/>
      <point x="1189" y="1607"/>
      <point x="1218" y="1482" type="qcurve"/>
    </contour>
  </outline>
</glyph>
<glyph name="kip" format="2">
	<unicode hex="20AD"/>
	<advance width="1331"/>
	<outline>
		<contour>
			<point x="1202" y="865" type="line"/>
			<point x="703" y="865" type="line"/>
			<point x="683" y="891" type="line"/>
			<point x="504" y="891" type="line"/>
			<point x="573" y="953" type="line"/>
			<point x="603" y="953" type="line"/>
			<point x="645" y="1002" type="line"/>
			<point x="1225" y="1002" type="line"/>
		</contour>
		<contour>
			<point x="135" y="865" type="line"/>
			<point x="146" y="1001" type="line"/>
			<point x="427" y="1001" type="line"/>
			<point x="417" y="953" type="line"/>
			<point x="573" y="953" type="line"/>
			<point x="504" y="891" type="line"/>
			<point x="412" y="891" type="line"/>
			<point x="407" y="865" type="line"/>
		</contour>
		<contour>
			<point x="-16" y="0" type="line"/>
			<point x="-7" y="100" type="line"/>
			<point x="189" y="125" type="line"/>
			<point x="334" y="864" type="line"/>
			<point x="468" y="1582" type="line"/>
			<point x="275" y="1606" type="line"/>
			<point x="288" y="1720" type="line"/>
			<point x="830" y="1720" type="line"/>
			<point x="817" y="1606" type="line"/>
			<point x="635" y="1582" type="line"/>
			<point x="494" y="864" type="line"/>
			<point x="361" y="125" type="line"/>
			<point x="545" y="100" type="line"/>
			<point x="536" y="0" type="line"/>
		</contour>
		<contour>
			<point x="375" y="678" type="line"/>
			<point x="405" y="831" type="line"/>
			<point x="1137" y="1568" type="line"/>
			<point x="1033" y="1606" type="line"/>
			<point x="1046" y="1720" type="line"/>
			<point x="1466" y="1720" type="line"/>
			<point x="1453" y="1606" type="line"/>
			<point x="1292" y="1568" type="line"/>
		</contour>
		<contour>
			<point x="526" y="884" type="line"/>
			<point x="652" y="997" type="line"/>
			<point x="1207" y="125" type="line"/>
			<point x="1341" y="100" type="line"/>
			<point x="1332" y="0" type="line"/>
			<point x="863" y="0" type="line"/>
			<point x="872" y="100" type="line"/>
			<point x="1013" y="125" type="line"/>
		</contour>
	</outline>
</glyph>
<glyph name="peso" format="2">
  <advance width="1349"/>
  <unicode hex="20B1"/>
  <outline>
    <contour>
      <point x="1313" y="834" type="line"/>
      <point x="1032" y="834" type="line"/>
      <point x="1032" y="848" type="line"/>
      <point x="699" y="848" type="line"/>
      <point x="726" y="960" type="line"/>
      <point x="1062" y="960" type="line"/>
      <point x="1062" y="975" type="line"/>
      <point x="1343" y="975" type="line"/>
    </contour>
    <contour>
      <point x="114" y="835" type="line"/>
      <point x="135" y="974" type="line"/>
      <point x="393" y="974" type="line"/>
      <point x="391" y="960" type="line"/>
      <point x="726" y="960" type="line"/>
      <point x="699" y="849" type="line"/>
      <point x="375" y="849" type="line"/>
      <point x="373" y="835" type="line"/>
    </contour>
    <contour>
      <point x="1344" y="1169" type="line"/>
      <point x="1122" y="1169" type="line"/>
      <point x="1122" y="1183" type="line"/>
      <point x="766" y="1183" type="line"/>
      <point x="788" y="1295" type="line"/>
      <point x="1102" y="1295" type="line"/>
      <point x="1102" y="1311" type="line"/>
      <point x="1374" y="1311" type="line"/>
    </contour>
    <contour>
      <point x="144" y="1169" type="line"/>
      <point x="165" y="1311" type="line"/>
      <point x="439" y="1311" type="line"/>
      <point x="437" y="1295" type="line"/>
      <point x="788" y="1295" type="line"/>
      <point x="766" y="1184" type="line"/>
      <point x="420" y="1184" type="line"/>
      <point x="418" y="1169" type="line"/>
    </contour>
    <contour>
      <point x="-41" y="0" type="line"/>
      <point x="-32" y="100" type="line"/>
      <point x="165" y="127" type="line"/>
      <point x="287" y="754" type="line"/>
      <point x="392" y="1582" type="line"/>
      <point x="209" y="1606" type="line"/>
      <point x="222" y="1720" type="line"/>
      <point x="794" y="1720" type="line" smooth="yes"/>
      <point x="1011" y="1720"/>
      <point x="1260" y="1326"/>
      <point x="1216" y="1083" type="qcurve" smooth="yes"/>
      <point x="1172" y="838"/>
      <point x="838" y="499"/>
      <point x="639" y="499" type="qcurve" smooth="yes"/>
      <point x="540" y="499"/>
      <point x="392" y="520"/>
      <point x="350" y="528" type="qcurve"/>
      <point x="379" y="629" type="line"/>
      <point x="430" y="616"/>
      <point x="532" y="607"/>
      <point x="625" y="607" type="qcurve" smooth="yes"/>
      <point x="763" y="607"/>
      <point x="1024" y="881"/>
      <point x="1053" y="1102" type="qcurve" smooth="yes"/>
      <point x="1082" y="1323"/>
      <point x="909" y="1610"/>
      <point x="764" y="1602" type="qcurve" smooth="yes"/>
      <point x="579" y="1602" type="line"/>
      <point x="553" y="1580" type="line"/>
      <point x="449" y="764" type="line"/>
      <point x="328" y="122" type="line"/>
      <point x="528" y="100" type="line"/>
      <point x="519" y="0" type="line"/>
    </contour>
  </outline>
</glyph>
<glyph name="guarani" format="2">
	<unicode hex="20B2"/>
	<advance width="1376"/>
	<outline>
		<contour>
			<point x="432" y="-122" type="line"/>
			<point x="489" y="86" type="line"/>
			<point x="507" y="81" type="line"/>
			<point x="725" y="917" type="line"/>
			<point x="839" y="878" type="line"/>
			<point x="628" y="54" type="line"/>
			<point x="648" y="50" type="line"/>
			<point x="605" y="-109" type="line"/>
		</contour>
		<contour>
			<point x="948" y="1869" type="line"/>
			<point x="1119" y="1869" type="line"/>
			<point x="1059" y="1647" type="line"/>
			<point x="1038" y="1651" type="line"/>
			<point x="839" y="878" type="line"/>
			<point x="725" y="917" type="line"/>
			<point x="918" y="1678" type="line"/>
			<point x="898" y="1683" type="line"/>
		</contour>
		<contour>
			<point x="168" y="959" type="qcurve" smooth="yes"/>
			<point x="262" y="1340"/>
			<point x="750" y="1790"/>
			<point x="1025" y="1753" type="qcurve" smooth="yes"/>
			<point x="1195" y="1732"/>
			<point x="1375" y="1496"/>
			<point x="1341" y="1240" type="qcurve"/>
			<point x="1213" y="1237" type="line"/>
			<point x="1223" y="1435"/>
			<point x="1135" y="1623"/>
			<point x="985" y="1648" type="qcurve" smooth="yes"/>
			<point x="766" y="1687"/>
			<point x="439" y="1329"/>
			<point x="355" y="968" type="qcurve" smooth="yes"/>
			<point x="274" y="630"/>
			<point x="404" y="175"/>
			<point x="578" y="152" type="qcurve" smooth="yes"/>
			<point x="712" y="134"/>
			<point x="931" y="188"/>
			<point x="1033" y="270" type="qcurve"/>
			<point x="1119" y="734" type="line"/>
			<point x="970" y="758" type="line"/>
			<point x="991" y="858" type="line"/>
			<point x="1294" y="866" type="line"/>
			<point x="1183" y="225" type="line"/>
			<point x="1138" y="188" type="line"/>
			<point x="1016" y="116"/>
			<point x="671" y="-8"/>
			<point x="525" y="12" type="qcurve" smooth="yes"/>
			<point x="280" y="47"/>
			<point x="75" y="592"/>
		</contour>
	</outline>
</glyph>
<glyph name="hryvnia" format="2">
  <advance width="1176"/>
  <unicode hex="20B4"/>
  <outline>
    <contour>
      <point x="68" y="745" type="line"/>
      <point x="1103" y="750" type="line"/>
      <point x="1063" y="614" type="line"/>
      <point x="32" y="609" type="line"/>
    </contour>
    <contour>
      <point x="163" y="1182" type="line"/>
      <point x="1206" y="1187" type="line"/>
      <point x="1176" y="1051" type="line"/>
      <point x="130" y="1046" type="line"/>
    </contour>
    <contour>
      <point x="1004" y="320" type="line"/>
      <point x="907" y="167"/>
      <point x="634" y="2"/>
      <point x="462" y="1" type="qcurve" smooth="yes"/>
      <point x="260" y="0"/>
      <point x="59" y="213"/>
      <point x="63" y="375" type="qcurve" smooth="yes"/>
      <point x="65" y="445"/>
      <point x="109" y="589"/>
      <point x="148" y="652" type="qcurve"/>
      <point x="181" y="690" type="line"/>
      <point x="248" y="770"/>
      <point x="448" y="907"/>
      <point x="559" y="958" type="qcurve" smooth="yes"/>
      <point x="680" y="1014"/>
      <point x="803" y="1072"/>
      <point x="845" y="1110" type="qcurve"/>
      <point x="863" y="1135" type="line"/>
      <point x="919" y="1188"/>
      <point x="971" y="1322"/>
      <point x="973" y="1386" type="qcurve" smooth="yes"/>
      <point x="975" y="1480"/>
      <point x="875" y="1606"/>
      <point x="768" y="1605" type="qcurve" smooth="yes"/>
      <point x="663" y="1605"/>
      <point x="502" y="1537"/>
      <point x="423" y="1481" type="qcurve"/>
      <point x="371" y="1605" type="line"/>
      <point x="462" y="1677"/>
      <point x="663" y="1756"/>
      <point x="781" y="1756" type="qcurve" smooth="yes"/>
      <point x="979" y="1757"/>
      <point x="1149" y="1557"/>
      <point x="1145" y="1413" type="qcurve" smooth="yes"/>
      <point x="1143" y="1325"/>
      <point x="1091" y="1185"/>
      <point x="1047" y="1123" type="qcurve"/>
      <point x="1014" y="1085" type="line"/>
      <point x="956" y="1023"/>
      <point x="782" y="919"/>
      <point x="666" y="870" type="qcurve" smooth="yes"/>
      <point x="548" y="819"/>
      <point x="399" y="725"/>
      <point x="348" y="664" type="qcurve"/>
      <point x="327" y="638" type="line"/>
      <point x="287" y="577"/>
      <point x="250" y="457"/>
      <point x="248" y="398" type="qcurve" smooth="yes"/>
      <point x="245" y="271"/>
      <point x="357" y="121"/>
      <point x="469" y="121" type="qcurve" smooth="yes"/>
      <point x="614" y="122"/>
      <point x="827" y="276"/>
      <point x="904" y="395" type="qcurve"/>
    </contour>
  </outline>
</glyph>
<glyph name="cedi" format="2">
  <advance width="1312"/>
  <unicode hex="20B5"/>
  <outline>
    <contour>
      <point x="162" y="999" type="qcurve" smooth="yes"/>
      <point x="256" y="1350"/>
      <point x="766" y="1705"/>
      <point x="1008" y="1655" type="qcurve" smooth="yes"/>
      <point x="1178" y="1621"/>
      <point x="1353" y="1348"/>
      <point x="1308" y="1112" type="qcurve"/>
      <point x="1180" y="1111" type="line"/>
      <point x="1213" y="1287"/>
      <point x="1116" y="1491"/>
      <point x="969" y="1517" type="qcurve" smooth="yes"/>
      <point x="784" y="1549"/>
      <point x="426" y="1319"/>
      <point x="345" y="988" type="qcurve" smooth="yes"/>
      <point x="268" y="676"/>
      <point x="406" y="238"/>
      <point x="601" y="204" type="qcurve" smooth="yes"/>
      <point x="790" y="173"/>
      <point x="1075" y="335"/>
      <point x="1166" y="479" type="qcurve"/>
      <point x="1176" y="479" type="line"/>
      <point x="1228" y="389" type="line"/>
      <point x="1118" y="209"/>
      <point x="778" y="44"/>
      <point x="551" y="73" type="qcurve" smooth="yes"/>
      <point x="284" y="108"/>
      <point x="66" y="640"/>
    </contour>
    <contour>
      <point x="443" y="-149" type="line"/>
      <point x="505" y="135" type="line"/>
      <point x="519" y="130" type="line"/>
      <point x="695" y="861" type="line"/>
      <point x="822" y="823" type="line"/>
      <point x="657" y="121" type="line"/>
      <point x="673" y="116" type="line"/>
      <point x="616" y="-137" type="line"/>
    </contour>
    <contour>
      <point x="887" y="1788" type="line"/>
      <point x="1058" y="1788" type="line"/>
      <point x="1007" y="1559" type="line"/>
      <point x="992" y="1563" type="line"/>
      <point x="822" y="823" type="line"/>
      <point x="695" y="861" type="line"/>
      <point x="861" y="1591" type="line"/>
      <point x="845" y="1596" type="line"/>
    </contour>
  </outline>
</glyph>
<glyph name="tenge" format="2">
	<unicode hex="20B8"/>
	<advance width="1248"/>
	<outline>
		<contour>
			<point x="236" y="1584" type="line"/>
			<point x="287" y="1720" type="line"/>
			<point x="1325" y="1720" type="line"/>
			<point x="1328" y="1584" type="line"/>
		</contour>
		<contour>
			<point x="117" y="984" type="line"/>
			<point x="200" y="1385" type="line"/>
			<point x="1297" y="1385" type="line"/>
			<point x="1214" y="984" type="line"/>
			<point x="1114" y="984" type="line"/>
			<point x="1142" y="1267" type="line"/>
			<point x="824" y="1267" type="line"/>
			<point x="810" y="1247" type="line"/>
			<point x="709" y="759" type="line"/>
			<point x="583" y="125" type="line"/>
			<point x="775" y="100" type="line"/>
			<point x="767" y="0" type="line"/>
			<point x="208" y="0" type="line"/>
			<point x="216" y="100" type="line"/>
			<point x="416" y="125" type="line"/>
			<point x="549" y="759" type="line"/>
			<point x="647" y="1247" type="line"/>
			<point x="643" y="1267" type="line"/>
			<point x="309" y="1267" type="line"/>
			<point x="217" y="984" type="line"/>
		</contour>
	</outline>
</glyph>
<glyph name="rupeeIndian" format="2">
	<unicode hex="20B9"/>
	<advance width="1120"/>
	<outline>
		<contour>
			<point x="237" y="841" type="qcurve"/>
			<point x="217" y="937" type="line"/>
			<point x="260" y="968" type="line"/>
			<point x="512" y="972" type="line" smooth="yes"/>
			<point x="671" y="975"/>
			<point x="818" y="1113"/>
			<point x="840" y="1274" type="qcurve" smooth="yes"/>
			<point x="858" y="1409"/>
			<point x="783" y="1604"/>
			<point x="659" y="1604" type="qcurve" smooth="yes"/>
			<point x="555" y="1605"/>
			<point x="323" y="1593"/>
			<point x="169" y="1585" type="qcurve"/>
			<point x="229" y="1728" type="line"/>
			<point x="446" y="1711"/>
			<point x="745" y="1701"/>
			<point x="760" y="1699" type="qcurve"/>
			<point x="1319" y="1731" type="line"/>
			<point x="1279" y="1568" type="line"/>
			<point x="1190" y="1574"/>
			<point x="1050" y="1584"/>
			<point x="990" y="1589" type="qcurve"/>
			<point x="1028" y="1538"/>
			<point x="1041" y="1377"/>
			<point x="1023" y="1280" type="qcurve" smooth="yes"/>
			<point x="987" y="1084"/>
			<point x="694" y="864"/>
			<point x="557" y="864" type="qcurve" smooth="yes"/>
			<point x="496" y="865"/>
			<point x="292" y="856"/>
		</contour>
		<contour>
			<point x="515" y="909" type="line"/>
			<point x="667" y="940" type="line"/>
			<point x="677" y="822" type="line" smooth="yes"/>
			<point x="696" y="597"/>
			<point x="840" y="120"/>
			<point x="1028" y="89" type="qcurve"/>
			<point x="999" y="-11" type="line"/>
			<point x="923" y="-11" type="line" smooth="yes"/>
			<point x="723" y="-10"/>
			<point x="546" y="508"/>
			<point x="525" y="779" type="qcurve" smooth="yes"/>
		</contour>
		<contour>
			<point x="204" y="1211" type="line"/>
			<point x="239" y="1352" type="line"/>
			<point x="925" y="1336" type="line"/>
			<point x="926" y="1351" type="line"/>
			<point x="1217" y="1351" type="line"/>
			<point x="1177" y="1211" type="line"/>
			<point x="891" y="1209" type="line"/>
			<point x="892" y="1224" type="line"/>
		</contour>
	</outline>
</glyph>
<glyph name="liraTurkish" format="2">
	<unicode hex="20BA"/>
	<advance width="1176"/>
	<outline>
		<contour>
			<point x="160" y="577" type="line"/>
			<point x="124" y="700" type="line"/>
			<point x="395" y="803" type="line"/>
			<point x="395" y="799" type="line"/>
			<point x="766" y="948" type="line"/>
			<point x="751" y="801" type="line"/>
			<point x="374" y="665" type="line"/>
			<point x="374" y="661" type="line"/>
		</contour>
		<contour>
			<point x="172" y="937" type="line"/>
			<point x="136" y="1063" type="line"/>
			<point x="442" y="1177" type="line"/>
			<point x="442" y="1174" type="line"/>
			<point x="828" y="1318" type="line"/>
			<point x="809" y="1164" type="line"/>
			<point x="441" y="1040" type="line"/>
			<point x="441" y="1035" type="line"/>
		</contour>
		<contour>
			<point x="355" y="159" type="line"/>
			<point x="395" y="132" type="line"/>
			<point x="553" y="153"/>
			<point x="954" y="470"/>
			<point x="1004" y="664" type="qcurve" smooth="yes"/>
			<point x="1053" y="858" type="line"/>
			<point x="1175" y="858" type="line"/>
			<point x="1124" y="500" type="line"/>
			<point x="1011" y="346"/>
			<point x="588" y="48"/>
			<point x="351" y="-8" type="qcurve"/>
			<point x="226" y="-29" type="line"/>
			<point x="139" y="47" type="line"/>
			<point x="180" y="132" type="line"/>
			<point x="327" y="854" type="line"/>
			<point x="463" y="1572" type="line"/>
			<point x="262" y="1606" type="line"/>
			<point x="275" y="1720" type="line"/>
			<point x="847" y="1720" type="line"/>
			<point x="834" y="1606" type="line"/>
			<point x="627" y="1572" type="line"/>
			<point x="487" y="854" type="line"/>
		</contour>
	</outline>
</glyph>
<glyph name="manat" format="2">
	<unicode hex="20BC"/>
	<advance width="1362"/>
	<outline>
		<contour>
			<point x="544" y="373" type="line"/>
			<point x="685" y="1033" type="line"/>
			<point x="784" y="1596" type="line"/>
			<point x="784" y="1815" type="line"/>
			<point x="985" y="1832" type="line"/>
			<point x="903" y="1595" type="line"/>
			<point x="799" y="1027" type="line"/>
			<point x="718" y="401" type="line"/>
		</contour>
		<contour>
			<point x="1283" y="114" type="line"/>
			<point x="1269" y="0" type="line"/>
			<point x="742" y="0" type="line"/>
			<point x="756" y="114" type="line"/>
			<point x="927" y="138" type="line"/>
			<point x="1077" y="855" type="line" smooth="yes"/>
			<point x="1096" y="947"/>
			<point x="1132" y="1195"/>
			<point x="1132" y="1262" type="qcurve" smooth="yes"/>
			<point x="1132" y="1381"/>
			<point x="985" y="1554"/>
			<point x="844" y="1554" type="qcurve" smooth="yes"/>
			<point x="690" y="1554"/>
			<point x="483" y="1372"/>
			<point x="436" y="1155" type="qcurve" smooth="yes"/>
			<point x="392" y="951" type="line"/>
			<point x="247" y="138" type="line"/>
			<point x="434" y="114" type="line"/>
			<point x="420" y="0" type="line"/>
			<point x="-79" y="0" type="line"/>
			<point x="-65" y="114" type="line"/>
			<point x="110" y="138" type="line"/>
			<point x="268" y="951" type="line"/>
			<point x="308" y="1156" type="line" smooth="yes"/>
			<point x="363" y="1438"/>
			<point x="648" y="1671"/>
			<point x="875" y="1671" type="qcurve" smooth="yes"/>
			<point x="1111" y="1671"/>
			<point x="1310" y="1447"/>
			<point x="1307" y="1285" type="qcurve" smooth="yes"/>
			<point x="1306" y="1205"/>
			<point x="1274" y="1034"/>
			<point x="1239" y="855" type="qcurve" smooth="yes"/>
			<point x="1100" y="138" type="line"/>
		</contour>
	</outline>
</glyph>
<glyph name="ruble" format="2">
	<unicode hex="20BD"/>
	<advance width="1165"/>
	<outline>
		<contour>
			<point x="47" y="427" type="line"/>
			<point x="73" y="523" type="line"/>
			<point x="901" y="533" type="line"/>
			<point x="870" y="397" type="line"/>
		</contour>
		<contour>
			<point x="-11" y="0" type="line"/>
			<point x="-12" y="100" type="line"/>
			<point x="185" y="127" type="line"/>
			<point x="327" y="876" type="line"/>
			<point x="453" y="1581" type="line"/>
			<point x="270" y="1605" type="line"/>
			<point x="283" y="1719" type="line"/>
			<point x="855" y="1719" type="line" smooth="yes"/>
			<point x="1072" y="1719"/>
			<point x="1280" y="1374"/>
			<point x="1238" y="1162" type="qcurve" smooth="yes"/>
			<point x="1198" y="961"/>
			<point x="868" y="711"/>
			<point x="669" y="711" type="qcurve" smooth="yes"/>
			<point x="570" y="711"/>
			<point x="248" y="751"/>
			<point x="125" y="782" type="qcurve"/>
			<point x="154" y="883" type="line"/>
			<point x="284" y="853"/>
			<point x="562" y="819"/>
			<point x="655" y="819" type="qcurve" smooth="yes"/>
			<point x="810" y="819"/>
			<point x="1032" y="1014"/>
			<point x="1064" y="1183" type="qcurve" smooth="yes"/>
			<point x="1095" y="1338"/>
			<point x="970" y="1600"/>
			<point x="825" y="1601" type="qcurve" smooth="yes"/>
			<point x="640" y="1601" type="line"/>
			<point x="614" y="1579" type="line"/>
			<point x="489" y="886" type="line"/>
			<point x="348" y="122" type="line"/>
			<point x="548" y="100" type="line"/>
			<point x="539" y="0" type="line"/>
		</contour>
	</outline>
</glyph>
<glyph name="eightsuperior" format="2">
  <advance width="748"/>
  <outline>
    <contour>
      <point x="475" y="1320" type="line" smooth="yes"/>
      <point x="586" y="1379"/>
      <point x="666" y="1497"/>
      <point x="667" y="1571" type="qcurve" smooth="yes"/>
      <point x="667" y="1629"/>
      <point x="606" y="1688"/>
      <point x="555" y="1688" type="qcurve" smooth="yes"/>
      <point x="478" y="1688"/>
      <point x="393" y="1607"/>
      <point x="391" y="1540" type="qcurve" smooth="yes"/>
      <point x="389" y="1454"/>
      <point x="478" y="1358"/>
      <point x="550" y="1300" type="qcurve" smooth="yes"/>
      <point x="621" y="1243"/>
      <point x="749" y="1098"/>
      <point x="748" y="991" type="qcurve" smooth="yes"/>
      <point x="747" y="857"/>
      <point x="518" y="638"/>
      <point x="371" y="638" type="qcurve" smooth="yes"/>
      <point x="245" y="638"/>
      <point x="94" y="786"/>
      <point x="95" y="899" type="qcurve" smooth="yes"/>
      <point x="96" y="1023"/>
      <point x="269" y="1211"/>
      <point x="403" y="1282" type="qcurve" smooth="yes"/>
    </contour>
    <contour>
      <point x="460" y="1221" type="line" smooth="yes"/>
      <point x="343" y="1158"/>
      <point x="224" y="998"/>
      <point x="223" y="895" type="qcurve" smooth="yes"/>
      <point x="222" y="819"/>
      <point x="293" y="729"/>
      <point x="383" y="729" type="qcurve" smooth="yes"/>
      <point x="483" y="729"/>
      <point x="604" y="833"/>
      <point x="604" y="933" type="qcurve" smooth="yes"/>
      <point x="604" y="1034"/>
      <point x="494" y="1165"/>
      <point x="444" y="1205" type="qcurve" smooth="yes"/>
      <point x="394" y="1245"/>
      <point x="260" y="1380"/>
      <point x="261" y="1496" type="qcurve" smooth="yes"/>
      <point x="262" y="1609"/>
      <point x="457" y="1780"/>
      <point x="587" y="1780" type="qcurve" smooth="yes"/>
      <point x="677" y="1780"/>
      <point x="795" y="1672"/>
      <point x="794" y="1594" type="qcurve" smooth="yes"/>
      <point x="794" y="1499"/>
      <point x="670" y="1334"/>
      <point x="539" y="1263" type="qcurve" smooth="yes"/>
    </contour>
  </outline>
</glyph>
<glyph name="fivesuperior" format="2">
  <advance width="705"/>
  <outline>
    <contour>
      <point x="50" y="857" type="qcurve" smooth="yes"/>
      <point x="51" y="933"/>
      <point x="151" y="1028"/>
      <point x="195" y="1041" type="qcurve"/>
      <point x="243" y="953" type="line"/>
      <point x="243" y="942" type="line"/>
      <point x="208" y="926"/>
      <point x="168" y="887"/>
      <point x="167" y="851" type="qcurve" smooth="yes"/>
      <point x="166" y="799"/>
      <point x="240" y="726"/>
      <point x="309" y="726" type="qcurve" smooth="yes"/>
      <point x="429" y="726"/>
      <point x="528" y="891"/>
      <point x="531" y="1044" type="qcurve" smooth="yes"/>
      <point x="533" y="1164"/>
      <point x="404" y="1269"/>
      <point x="317" y="1241" type="qcurve" smooth="yes"/>
      <point x="240" y="1215" type="line"/>
      <point x="198" y="1284" type="line"/>
      <point x="333" y="1731" type="line"/>
      <point x="355" y="1750" type="line"/>
      <point x="780" y="1750" type="line"/>
      <point x="748" y="1601" type="line"/>
      <point x="393" y="1601" type="line"/>
      <point x="385" y="1595" type="line"/>
      <point x="370" y="1539"/>
      <point x="312" y="1348"/>
      <point x="301" y="1320" type="qcurve"/>
      <point x="420" y="1359" type="line"/>
      <point x="552" y="1359"/>
      <point x="693" y="1215"/>
      <point x="690" y="1066" type="qcurve" smooth="yes"/>
      <point x="686" y="867"/>
      <point x="473" y="640"/>
      <point x="321" y="640" type="qcurve" smooth="yes"/>
      <point x="190" y="640"/>
      <point x="48" y="767"/>
    </contour>
  </outline>
</glyph>
<glyph name="ninesuperior" format="2">
  <advance width="756"/>
  <outline>
    <contour>
      <point x="141" y="642" type="qcurve"/>
      <point x="115" y="724" type="line"/>
      <point x="306" y="796"/>
      <point x="643" y="1169"/>
      <point x="645" y="1443" type="qcurve" smooth="yes"/>
      <point x="646" y="1567"/>
      <point x="579" y="1699"/>
      <point x="501" y="1699" type="qcurve" smooth="yes"/>
      <point x="406" y="1699"/>
      <point x="311" y="1519"/>
      <point x="308" y="1400" type="qcurve" smooth="yes"/>
      <point x="306" y="1309"/>
      <point x="366" y="1216"/>
      <point x="430" y="1216" type="qcurve" smooth="yes"/>
      <point x="466" y="1216"/>
      <point x="513" y="1240"/>
      <point x="540" y="1259" type="qcurve"/>
      <point x="560" y="1203" type="line"/>
      <point x="533" y="1174"/>
      <point x="452" y="1128"/>
      <point x="390" y="1128" type="qcurve" smooth="yes"/>
      <point x="272" y="1127"/>
      <point x="147" y="1276"/>
      <point x="150" y="1390" type="qcurve" smooth="yes"/>
      <point x="155" y="1552"/>
      <point x="345" y="1781"/>
      <point x="514" y="1781" type="qcurve" smooth="yes"/>
      <point x="667" y="1781"/>
      <point x="805" y="1580"/>
      <point x="800" y="1426" type="qcurve" smooth="yes"/>
      <point x="793" y="1187"/>
      <point x="418" y="747"/>
    </contour>
  </outline>
</glyph>
<glyph name="sevensuperior" format="2">
  <advance width="680"/>
  <outline>
    <contour>
      <point x="131" y="1494" type="line"/>
      <point x="242" y="1750" type="line"/>
      <point x="784" y="1750" type="line"/>
      <point x="828" y="1679" type="line"/>
      <point x="680" y="1472"/>
      <point x="401" y="902"/>
      <point x="375" y="694" type="qcurve"/>
      <point x="225" y="640" type="line"/>
      <point x="184" y="698" type="line"/>
      <point x="261" y="916"/>
      <point x="553" y="1449"/>
      <point x="673" y="1589" type="qcurve"/>
      <point x="665" y="1598" type="line"/>
      <point x="304" y="1596" type="line"/>
      <point x="228" y="1494" type="line"/>
    </contour>
  </outline>
</glyph>
<glyph name="sixsuperior" format="2">
  <advance width="767"/>
  <outline>
    <contour>
      <point x="111" y="997" type="qcurve" smooth="yes"/>
      <point x="118" y="1236"/>
      <point x="493" y="1676"/>
      <point x="770" y="1781" type="qcurve"/>
      <point x="796" y="1699" type="line"/>
      <point x="605" y="1627"/>
      <point x="268" y="1254"/>
      <point x="266" y="980" type="qcurve" smooth="yes"/>
      <point x="265" y="856"/>
      <point x="332" y="724"/>
      <point x="410" y="724" type="qcurve" smooth="yes"/>
      <point x="505" y="724"/>
      <point x="600" y="904"/>
      <point x="603" y="1023" type="qcurve" smooth="yes"/>
      <point x="605" y="1114"/>
      <point x="545" y="1207"/>
      <point x="481" y="1207" type="qcurve" smooth="yes"/>
      <point x="445" y="1207"/>
      <point x="398" y="1183"/>
      <point x="371" y="1164" type="qcurve"/>
      <point x="351" y="1220" type="line"/>
      <point x="378" y="1249"/>
      <point x="459" y="1295"/>
      <point x="521" y="1295" type="qcurve" smooth="yes"/>
      <point x="639" y="1296"/>
      <point x="764" y="1147"/>
      <point x="761" y="1033" type="qcurve" smooth="yes"/>
      <point x="756" y="871"/>
      <point x="566" y="642"/>
      <point x="397" y="642" type="qcurve" smooth="yes"/>
      <point x="244" y="642"/>
      <point x="106" y="843"/>
    </contour>
  </outline>
</glyph>
<glyph name="zerosuperior" format="2">
  <advance width="895"/>
  <outline>
    <contour>
      <point x="154" y="1211" type="qcurve" smooth="yes"/>
      <point x="192" y="1436"/>
      <point x="465" y="1781"/>
      <point x="617" y="1781" type="qcurve" smooth="yes"/>
      <point x="778" y="1781"/>
      <point x="916" y="1471"/>
      <point x="875" y="1218" type="qcurve" smooth="yes"/>
      <point x="838" y="989"/>
      <point x="567" y="641"/>
      <point x="414" y="641" type="qcurve" smooth="yes"/>
      <point x="251" y="641"/>
      <point x="111" y="956"/>
    </contour>
    <contour>
      <point x="314" y="1235" type="qcurve" smooth="yes"/>
      <point x="275" y="1024"/>
      <point x="338" y="748"/>
      <point x="429" y="748" type="qcurve" smooth="yes"/>
      <point x="527" y="748"/>
      <point x="675" y="999"/>
      <point x="714" y="1220" type="qcurve" smooth="yes"/>
      <point x="749" y="1420"/>
      <point x="687" y="1674"/>
      <point x="594" y="1674" type="qcurve" smooth="yes"/>
      <point x="497" y="1674"/>
      <point x="353" y="1447"/>
    </contour>
  </outline>
</glyph>
